<?xml version="1.0" encoding="utf-8" standalone="no"?>
<!DOCTYPE svg PUBLIC "-//W3C//DTD SVG 1.1//EN"
  "http://www.w3.org/Graphics/SVG/1.1/DTD/svg11.dtd">
<svg xmlns:xlink="http://www.w3.org/1999/xlink" width="457.516875pt" height="52.776pt" viewBox="0 0 457.516875 52.776" xmlns="http://www.w3.org/2000/svg" version="1.1">
 <metadata>
  <rdf:RDF xmlns:dc="http://purl.org/dc/elements/1.1/" xmlns:cc="http://creativecommons.org/ns#" xmlns:rdf="http://www.w3.org/1999/02/22-rdf-syntax-ns#">
   <cc:Work>
    <dc:type rdf:resource="http://purl.org/dc/dcmitype/StillImage"/>
    <dc:date>2026-09-02T10:11:39.700916</dc:date>
    <dc:format>image/svg+xml</dc:format>
    <dc:creator>
     <cc:Agent>
      <dc:title>Matplotlib v3.10.9, https://matplotlib.org/</dc:title>
     </cc:Agent>
    </dc:creator>
   </cc:Work>
  </rdf:RDF>
 </metadata>
 <defs>
  <style type="text/css">*{stroke-linejoin: round; stroke-linecap: butt}</style>
 </defs>
 <g id="figure_1">
  <g id="patch_1">
   <path d="M 0 52.776 
L 457.516875 52.776 
L 457.516875 0 
L 0 0 
z
" style="fill: #ffffff"/>
  </g>
  <g id="axes_1">
   <g id="legend_1">
    <g id="line2d_1">
     <defs>
      <path id="m2b551d39e2" d="M 0 4.844069 
C 1.284662 4.844069 2.516881 4.333667 3.425274 3.425274 
C 4.333667 2.516881 4.844069 1.284662 4.844069 0 
C 4.844069 -1.284662 4.333667 -2.516881 3.425274 -3.425274 
C 2.516881 -4.333667 1.284662 -4.844069 0 -4.844069 
C -1.284662 -4.844069 -2.516881 -4.333667 -3.425274 -3.425274 
C -4.333667 -2.516881 -4.844069 -1.284662 -4.844069 0 
C -4.844069 1.284662 -4.333667 2.516881 -3.425274 3.425274 
C -2.516881 4.333667 -1.284662 4.844069 0 4.844069 
z
" style="stroke: #000000; stroke-opacity: 0.616"/>
     </defs>
     <g>
      <use xlink:href="#m2b551d39e2" x="18.24" y="25.351125" style="fill-opacity: 0.616; stroke: #000000; stroke-opacity: 0.616"/>
     </g>
    </g>
    <g id="text_1">
     <!-- individual trial -->
     <g transform="translate(46.24 30.251125) scale(0.14 -0.14)">
      <defs>
       <path id="DejaVuSans-69" d="M 603 3500 
L 1178 3500 
L 1178 0 
L 603 0 
L 603 3500 
z
M 603 4863 
L 1178 4863 
L 1178 4134 
L 603 4134 
L 603 4863 
z
" transform="scale(0.015625)"/>
       <path id="DejaVuSans-6e" d="M 3513 2113 
L 3513 0 
L 2938 0 
L 2938 2094 
Q 2938 2591 2744 2837 
Q 2550 3084 2163 3084 
Q 1697 3084 1428 2787 
Q 1159 2491 1159 1978 
L 1159 0 
L 581 0 
L 581 3500 
L 1159 3500 
L 1159 2956 
Q 1366 3272 1645 3428 
Q 1925 3584 2291 3584 
Q 2894 3584 3203 3211 
Q 3513 2838 3513 2113 
z
" transform="scale(0.015625)"/>
       <path id="DejaVuSans-64" d="M 2906 2969 
L 2906 4863 
L 3481 4863 
L 3481 0 
L 2906 0 
L 2906 525 
Q 2725 213 2448 61 
Q 2172 -91 1784 -91 
Q 1150 -91 751 415 
Q 353 922 353 1747 
Q 353 2572 751 3078 
Q 1150 3584 1784 3584 
Q 2172 3584 2448 3432 
Q 2725 3281 2906 2969 
z
M 947 1747 
Q 947 1113 1208 752 
Q 1469 391 1925 391 
Q 2381 391 2643 752 
Q 2906 1113 2906 1747 
Q 2906 2381 2643 2742 
Q 2381 3103 1925 3103 
Q 1469 3103 1208 2742 
Q 947 2381 947 1747 
z
" transform="scale(0.015625)"/>
       <path id="DejaVuSans-76" d="M 191 3500 
L 800 3500 
L 1894 563 
L 2988 3500 
L 3597 3500 
L 2284 0 
L 1503 0 
L 191 3500 
z
" transform="scale(0.015625)"/>
       <path id="DejaVuSans-75" d="M 544 1381 
L 544 3500 
L 1119 3500 
L 1119 1403 
Q 1119 906 1312 657 
Q 1506 409 1894 409 
Q 2359 409 2629 706 
Q 2900 1003 2900 1516 
L 2900 3500 
L 3475 3500 
L 3475 0 
L 2900 0 
L 2900 538 
Q 2691 219 2414 64 
Q 2138 -91 1772 -91 
Q 1169 -91 856 284 
Q 544 659 544 1381 
z
M 1991 3584 
L 1991 3584 
z
" transform="scale(0.015625)"/>
       <path id="DejaVuSans-61" d="M 2194 1759 
Q 1497 1759 1228 1600 
Q 959 1441 959 1056 
Q 959 750 1161 570 
Q 1363 391 1709 391 
Q 2188 391 2477 730 
Q 2766 1069 2766 1631 
L 2766 1759 
L 2194 1759 
z
M 3341 1997 
L 3341 0 
L 2766 0 
L 2766 531 
Q 2569 213 2275 61 
Q 1981 -91 1556 -91 
Q 1019 -91 701 211 
Q 384 513 384 1019 
Q 384 1609 779 1909 
Q 1175 2209 1959 2209 
L 2766 2209 
L 2766 2266 
Q 2766 2663 2505 2880 
Q 2244 3097 1772 3097 
Q 1472 3097 1187 3025 
Q 903 2953 641 2809 
L 641 3341 
Q 956 3463 1253 3523 
Q 1550 3584 1831 3584 
Q 2591 3584 2966 3190 
Q 3341 2797 3341 1997 
z
" transform="scale(0.015625)"/>
       <path id="DejaVuSans-6c" d="M 603 4863 
L 1178 4863 
L 1178 0 
L 603 0 
L 603 4863 
z
" transform="scale(0.015625)"/>
       <path id="DejaVuSans-20" transform="scale(0.015625)"/>
       <path id="DejaVuSans-74" d="M 1172 4494 
L 1172 3500 
L 2356 3500 
L 2356 3053 
L 1172 3053 
L 1172 1153 
Q 1172 725 1289 603 
Q 1406 481 1766 481 
L 2356 481 
L 2356 0 
L 1766 0 
Q 1100 0 847 248 
Q 594 497 594 1153 
L 594 3053 
L 172 3053 
L 172 3500 
L 594 3500 
L 594 4494 
L 1172 4494 
z
" transform="scale(0.015625)"/>
       <path id="DejaVuSans-72" d="M 2631 2963 
Q 2534 3019 2420 3045 
Q 2306 3072 2169 3072 
Q 1681 3072 1420 2755 
Q 1159 2438 1159 1844 
L 1159 0 
L 581 0 
L 581 3500 
L 1159 3500 
L 1159 2956 
Q 1341 3275 1631 3429 
Q 1922 3584 2338 3584 
Q 2397 3584 2469 3576 
Q 2541 3569 2628 3553 
L 2631 2963 
z
" transform="scale(0.015625)"/>
      </defs>
      <use xlink:href="#DejaVuSans-69"/>
      <use xlink:href="#DejaVuSans-6e" transform="translate(27.783203 0)"/>
      <use xlink:href="#DejaVuSans-64" transform="translate(91.162109 0)"/>
      <use xlink:href="#DejaVuSans-69" transform="translate(154.638672 0)"/>
      <use xlink:href="#DejaVuSans-76" transform="translate(182.421875 0)"/>
      <use xlink:href="#DejaVuSans-69" transform="translate(241.601562 0)"/>
      <use xlink:href="#DejaVuSans-64" transform="translate(269.384766 0)"/>
      <use xlink:href="#DejaVuSans-75" transform="translate(332.861328 0)"/>
      <use xlink:href="#DejaVuSans-61" transform="translate(396.240234 0)"/>
      <use xlink:href="#DejaVuSans-6c" transform="translate(457.519531 0)"/>
      <use xlink:href="#DejaVuSans-20" transform="translate(485.302734 0)"/>
      <use xlink:href="#DejaVuSans-74" transform="translate(517.089844 0)"/>
      <use xlink:href="#DejaVuSans-72" transform="translate(556.298828 0)"/>
      <use xlink:href="#DejaVuSans-69" transform="translate(597.412109 0)"/>
      <use xlink:href="#DejaVuSans-61" transform="translate(625.195312 0)"/>
      <use xlink:href="#DejaVuSans-6c" transform="translate(686.474609 0)"/>
     </g>
    </g>
    <g id="line2d_2">
     <path d="M 174.235 25.351125 
L 191.035 25.351125 
L 207.835 25.351125 
" style="fill: none; stroke: #003366; stroke-width: 4; stroke-linecap: square"/>
    </g>
    <g id="text_2">
     <!-- model fit -->
     <g transform="translate(219.035 30.251125) scale(0.14 -0.14)">
      <defs>
       <path id="DejaVuSans-6d" d="M 3328 2828 
Q 3544 3216 3844 3400 
Q 4144 3584 4550 3584 
Q 5097 3584 5394 3201 
Q 5691 2819 5691 2113 
L 5691 0 
L 5113 0 
L 5113 2094 
Q 5113 2597 4934 2840 
Q 4756 3084 4391 3084 
Q 3944 3084 3684 2787 
Q 3425 2491 3425 1978 
L 3425 0 
L 2847 0 
L 2847 2094 
Q 2847 2600 2669 2842 
Q 2491 3084 2119 3084 
Q 1678 3084 1418 2786 
Q 1159 2488 1159 1978 
L 1159 0 
L 581 0 
L 581 3500 
L 1159 3500 
L 1159 2956 
Q 1356 3278 1631 3431 
Q 1906 3584 2284 3584 
Q 2666 3584 2933 3390 
Q 3200 3197 3328 2828 
z
" transform="scale(0.015625)"/>
       <path id="DejaVuSans-6f" d="M 1959 3097 
Q 1497 3097 1228 2736 
Q 959 2375 959 1747 
Q 959 1119 1226 758 
Q 1494 397 1959 397 
Q 2419 397 2687 759 
Q 2956 1122 2956 1747 
Q 2956 2369 2687 2733 
Q 2419 3097 1959 3097 
z
M 1959 3584 
Q 2709 3584 3137 3096 
Q 3566 2609 3566 1747 
Q 3566 888 3137 398 
Q 2709 -91 1959 -91 
Q 1206 -91 779 398 
Q 353 888 353 1747 
Q 353 2609 779 3096 
Q 1206 3584 1959 3584 
z
" transform="scale(0.015625)"/>
       <path id="DejaVuSans-65" d="M 3597 1894 
L 3597 1613 
L 953 1613 
Q 991 1019 1311 708 
Q 1631 397 2203 397 
Q 2534 397 2845 478 
Q 3156 559 3463 722 
L 3463 178 
Q 3153 47 2828 -22 
Q 2503 -91 2169 -91 
Q 1331 -91 842 396 
Q 353 884 353 1716 
Q 353 2575 817 3079 
Q 1281 3584 2069 3584 
Q 2775 3584 3186 3129 
Q 3597 2675 3597 1894 
z
M 3022 2063 
Q 3016 2534 2758 2815 
Q 2500 3097 2075 3097 
Q 1594 3097 1305 2825 
Q 1016 2553 972 2059 
L 3022 2063 
z
" transform="scale(0.015625)"/>
       <path id="DejaVuSans-66" d="M 2375 4863 
L 2375 4384 
L 1825 4384 
Q 1516 4384 1395 4259 
Q 1275 4134 1275 3809 
L 1275 3500 
L 2222 3500 
L 2222 3053 
L 1275 3053 
L 1275 0 
L 697 0 
L 697 3053 
L 147 3053 
L 147 3500 
L 697 3500 
L 697 3744 
Q 697 4328 969 4595 
Q 1241 4863 1831 4863 
L 2375 4863 
z
" transform="scale(0.015625)"/>
      </defs>
      <use xlink:href="#DejaVuSans-6d"/>
      <use xlink:href="#DejaVuSans-6f" transform="translate(97.412109 0)"/>
      <use xlink:href="#DejaVuSans-64" transform="translate(158.59375 0)"/>
      <use xlink:href="#DejaVuSans-65" transform="translate(222.070312 0)"/>
      <use xlink:href="#DejaVuSans-6c" transform="translate(283.59375 0)"/>
      <use xlink:href="#DejaVuSans-20" transform="translate(311.376953 0)"/>
      <use xlink:href="#DejaVuSans-66" transform="translate(343.164062 0)"/>
      <use xlink:href="#DejaVuSans-69" transform="translate(378.369141 0)"/>
      <use xlink:href="#DejaVuSans-74" transform="translate(406.152344 0)"/>
     </g>
    </g>
    <g id="line2d_3">
     <path d="M 309.385312 25.351125 
L 326.185312 25.351125 
L 342.985312 25.351125 
" style="fill: none; stroke-dasharray: 7,5.6; stroke-dashoffset: 0; stroke: #e8720c; stroke-width: 3.5"/>
    </g>
    <g id="text_3">
     <!-- ideal response -->
     <g transform="translate(354.185312 30.251125) scale(0.14 -0.14)">
      <defs>
       <path id="DejaVuSans-73" d="M 2834 3397 
L 2834 2853 
Q 2591 2978 2328 3040 
Q 2066 3103 1784 3103 
Q 1356 3103 1142 2972 
Q 928 2841 928 2578 
Q 928 2378 1081 2264 
Q 1234 2150 1697 2047 
L 1894 2003 
Q 2506 1872 2764 1633 
Q 3022 1394 3022 966 
Q 3022 478 2636 193 
Q 2250 -91 1575 -91 
Q 1294 -91 989 -36 
Q 684 19 347 128 
L 347 722 
Q 666 556 975 473 
Q 1284 391 1588 391 
Q 1994 391 2212 530 
Q 2431 669 2431 922 
Q 2431 1156 2273 1281 
Q 2116 1406 1581 1522 
L 1381 1569 
Q 847 1681 609 1914 
Q 372 2147 372 2553 
Q 372 3047 722 3315 
Q 1072 3584 1716 3584 
Q 2034 3584 2315 3537 
Q 2597 3491 2834 3397 
z
" transform="scale(0.015625)"/>
       <path id="DejaVuSans-70" d="M 1159 525 
L 1159 -1331 
L 581 -1331 
L 581 3500 
L 1159 3500 
L 1159 2969 
Q 1341 3281 1617 3432 
Q 1894 3584 2278 3584 
Q 2916 3584 3314 3078 
Q 3713 2572 3713 1747 
Q 3713 922 3314 415 
Q 2916 -91 2278 -91 
Q 1894 -91 1617 61 
Q 1341 213 1159 525 
z
M 3116 1747 
Q 3116 2381 2855 2742 
Q 2594 3103 2138 3103 
Q 1681 3103 1420 2742 
Q 1159 2381 1159 1747 
Q 1159 1113 1420 752 
Q 1681 391 2138 391 
Q 2594 391 2855 752 
Q 3116 1113 3116 1747 
z
" transform="scale(0.015625)"/>
      </defs>
      <use xlink:href="#DejaVuSans-69"/>
      <use xlink:href="#DejaVuSans-64" transform="translate(27.783203 0)"/>
      <use xlink:href="#DejaVuSans-65" transform="translate(91.259766 0)"/>
      <use xlink:href="#DejaVuSans-61" transform="translate(152.783203 0)"/>
      <use xlink:href="#DejaVuSans-6c" transform="translate(214.0625 0)"/>
      <use xlink:href="#DejaVuSans-20" transform="translate(241.845703 0)"/>
      <use xlink:href="#DejaVuSans-72" transform="translate(273.632812 0)"/>
      <use xlink:href="#DejaVuSans-65" transform="translate(312.496094 0)"/>
      <use xlink:href="#DejaVuSans-73" transform="translate(374.019531 0)"/>
      <use xlink:href="#DejaVuSans-70" transform="translate(426.119141 0)"/>
      <use xlink:href="#DejaVuSans-6f" transform="translate(489.595703 0)"/>
      <use xlink:href="#DejaVuSans-6e" transform="translate(550.777344 0)"/>
      <use xlink:href="#DejaVuSans-73" transform="translate(614.15625 0)"/>
      <use xlink:href="#DejaVuSans-65" transform="translate(666.255859 0)"/>
     </g>
    </g>
   </g>
  </g>
 </g>
</svg>
